<svg xmlns="http://www.w3.org/2000/svg" viewBox="0 0 24 24">

    <path fill="#dfdce3" d="M14.9853,6.0976A5.0683,5.0683,0,0,0,13.4748,2.493a5.2,5.2,0,0,0-7.293,0,5.0561,5.0561,0,0,0,0,7.2091,5.2,5.2,0,0,0,7.293,0A5.0682,5.0682,0,0,0,14.9853,6.0976Zm-2.662,2.4662a3.5575,3.5575,0,0,1-4.99,0,3.4594,3.4594,0,0,1,0-4.9325,3.5575,3.5575,0,0,1,4.99,0,3.4594,3.4594,0,0,1,0,4.9325Z"/>
    <path fill="#dfdce3" d="M8.2,13.8781H7.657A5.1875,5.1875,0,0,0,4.01,15.3711,5.0681,5.0681,0,0,0,2.5,18.9756V21.122a.8143.8143,0,0,0,1.6285,0V18.9756a3.4675,3.4675,0,0,1,1.0334-2.4662A3.55,3.55,0,0,1,7.657,15.4878H8.2a.8049.8049,0,1,0,0-1.61Z"/>
    <path fill="#dfdce3" d="M21.2548,15.8178A3.1037,3.1037,0,0,0,20.5541,14.8a3.277,3.277,0,0,0-4.2081-.2821,3.2772,3.2772,0,0,0-4.2065.2669,3.0864,3.0864,0,0,0-.9542,2.2227,3.0715,3.0715,0,0,0,.2448,1.2077,3.1032,3.1032,0,0,0,.7,1.0179l.0008.0008,3.6409,3.5357a.8211.8211,0,0,0,1.1407.0006l3.634-3.5215.0016-.0015a3.0771,3.0771,0,0,0,.7068-3.4291Z"/>

</svg>
